<?xml version="1.0" encoding="utf-8"?>
<!-- Generator: Adobe Illustrator 16.0.0, SVG Export Plug-In . SVG Version: 6.00 Build 0)  -->
<!DOCTYPE svg PUBLIC "-//W3C//DTD SVG 1.1//EN" "http://www.w3.org/Graphics/SVG/1.1/DTD/svg11.dtd">
<svg version="1.1" xmlns="http://www.w3.org/2000/svg" xmlns:xlink="http://www.w3.org/1999/xlink" x="0px" y="0px" width="3264px"
	 height="668px" viewBox="0 0 3264 668" enable-background="new 0 0 3264 668" xml:space="preserve">
<g id="Layer_1" display="none">
</g>
<g id="Layer_3">
</g>
<g id="Layer_2">
	<g>
		<path fill-rule="evenodd" clip-rule="evenodd" fill="#0185D9" d="M836.282,213.143c-34.984,0-64.565,10.108-88.745,30.325
			c-29.156,24.501-43.73,61.94-43.73,112.309c0,43.175,10.804,77.271,32.411,102.286c23.32,26.9,56.675,40.349,100.063,40.349
			c24.694,0,47.415-5.57,68.166-16.703c42.869-22.959,64.308-66.222,64.308-129.785c0-42.146-11.149-75.474-33.44-99.976
			C911.819,226.08,878.81,213.143,836.282,213.143z M895.702,421.5c-13.207,20.751-33.015,31.125-59.42,31.125
			c-26.411,0-46.217-10.117-59.42-30.354c-10.977-16.978-16.463-39.184-16.463-66.623c0-27.435,5.486-49.645,16.463-66.623
			c13.203-20.064,33.009-30.096,59.42-30.096c25.55,0,44.927,9.775,58.134,29.325c11.833,17.323,17.749,39.271,17.749,65.851
			C912.165,381.886,906.675,404.354,895.702,421.5z"/>
		<path fill-rule="evenodd" clip-rule="evenodd" fill="#0185D9" d="M1138.882,211.342c-7.388,0-12.367,0-14.939,0h-55.381v-78.97
			c0-12.001-8.963-18.006-26.885-18.006c-18.778,0-28.163,6.005-28.163,18.006v350.863c0,10.116,8.364,15.176,25.092,15.176
			c18.602,0,28.589-5.057,29.956-15.161V258.415h70.108c4.308,0,7.242,0,8.797,0c18.971,3.601,33.63,15.59,43.979,35.972
			c8.622,16.792,12.934,35.72,12.934,56.788v131.048c0,10.791,8.533,16.188,25.603,16.188c18.431,0,28.247-5.313,29.445-15.932
			V351.15c0-39.235-9.619-71.53-28.851-96.892C1208.938,225.65,1178.375,211.342,1138.882,211.342z"/>
		<path fill-rule="evenodd" clip-rule="evenodd" fill="#0185D9" d="M1662.287,261.502c-20.724-30.354-48.642-45.53-83.748-45.53
			c-14.389,0-28.987,3.947-43.802,11.833c-14.815,7.89-26.845,17.664-36.089,29.324c-21.584-29.666-52.411-44.501-92.483-44.501
			c-7.362,0-12.331,0.173-14.899,0.515l-61.651,1.028c-18.842,0.346-28.259,6.266-28.259,17.766v253.601
			c0,10.125,8.4,15.189,25.209,15.189c16.29,0,25.121-4.98,26.496-14.936V259.443h52.848c3.951,0,6.872,0,8.763,0
			c17.186,3.095,31.061,13.629,41.631,31.596c10.57,17.97,15.426,39.248,14.569,63.837v126.007c0,1.548,0.169,3.095,0.515,4.638
			c0.514,10.136,9.088,15.205,25.723,15.205c18.521,0,28.38-5.321,29.582-15.965V347.248c0-0.86,0-1.889,0-3.091v-1.033
			c0-17.854,2.994-32.186,8.982-43.005c11.459-20.426,26-30.643,43.621-30.643c10.607,0,19.076,2.404,25.405,7.203
			c18.987,13.891,28.484,40.217,28.484,78.97v122.701c0,12.347,9.301,18.519,27.91,18.519c18.09,0,27.138-6.172,27.138-18.519
			V355.391l-0.269,0.16C1686.438,316.162,1677.894,284.794,1662.287,261.502z"/>
		<path fill-rule="evenodd" clip-rule="evenodd" fill="#0185D9" d="M1947.006,214.428l-82.313-1.201
			c-2.573-0.398-7.549-0.599-14.919-0.599c-39.445,0-69.968,14.248-91.575,42.74c-19.036,25.232-28.553,57.326-28.553,96.289
			c0,39.65,9.687,73.033,29.068,100.155c22.464,31.069,53.588,46.599,93.374,46.599c29.152,0,52.99-10.2,71.511-30.609v18.006
			c1.37,9.943,10.201,14.919,26.495,14.919c16.977,0,25.466-5.06,25.466-15.177V232.178
			C1975.559,220.518,1966.041,214.601,1947.006,214.428z M1918.967,353.599c-0.346,36.772-2.917,58.922-7.716,66.445
			c-13.722,21.72-32.154,32.58-55.305,32.58c-24.179,0-42.531-10.928-55.048-32.793c-9.947-17.419-14.919-38.857-14.919-64.308
			c0-22.885,3.669-42.442,11.017-58.672c9.565-20.836,24.172-33.047,43.818-36.636c1.536,0,4.526,0,8.972,0h69.182V353.599z"/>
		<path fill-rule="evenodd" clip-rule="evenodd" fill="#0185D9" d="M2232.532,214.428l-82.313-1.201
			c-2.573-0.398-7.548-0.599-14.92-0.599c-39.444,0-69.966,14.332-91.573,42.997c-19.036,25.402-28.553,57.757-28.553,97.061
			c0,40.164,9.687,73.806,29.067,100.927c22.463,31.41,53.588,47.113,93.375,47.113c26.578,0,48.699-8.573,66.364-25.723
			c-0.347,18.521-1.375,31.038-3.087,37.556c-8.062,29.666-32.755,44.501-74.081,44.501c-22.467,0-39.014-3.859-49.645-11.575
			c-1.202-1.376-4.462-5.06-9.775-11.061c-4.288-4.977-10.29-7.461-18.006-7.461c-7.034,0-13.806,2.059-20.322,6.174
			c-7.547,4.799-11.318,10.714-11.318,17.749c0,2.399,0.771,4.972,2.316,7.716c17.146,29.839,52.815,44.758,107.008,44.758
			c67.736,0,109.49-24.609,125.27-73.824c2.743-8.578,4.8-19.896,6.175-33.955c1.713-2.059,2.573-4.63,2.573-7.717V232.435
			C2261.085,220.602,2251.567,214.601,2232.532,214.428z M2204.493,355.001c-0.345,37.09-2.919,59.5-7.717,67.226
			c-13.72,21.809-32.152,32.713-55.304,32.713c-23.838,0-42.017-10.716-54.532-32.154c-10.289-17.834-15.435-39.783-15.435-65.852
			c0-23.151,3.67-43.042,11.017-59.677c9.565-21.094,24.171-33.44,43.818-37.042c1.535,0,4.525,0,8.971,0h69.183V355.001z"/>
		<path fill-rule="evenodd" clip-rule="evenodd" fill="#0185D9" d="M2561.788,356.15c0.342-2.234,0.425-3.867,0.257-4.895
			c-1.89-30.579-4.373-50.764-7.46-60.554c-4.63-14.771-12.604-28.083-23.923-39.94c-24.011-25.08-54.962-37.619-92.86-37.619
			c-42.873,0-76.14,14.22-99.805,42.66c-21.438,26.044-32.154,60.14-32.154,102.286c0,42.322,11.229,75.903,33.696,100.746
			c24.008,26.386,57.621,39.577,100.835,39.577c29.494,0,54.619-6.499,75.369-19.5c22.636-14.197,37.724-34.639,45.274-61.326
			c0.513-1.536,0.77-2.991,0.77-4.361c0-11.973-9.518-17.961-28.551-17.961c-13.722,0-23.24,4.525-28.553,13.571
			c-10.805,29.197-32.153,43.79-64.052,43.79c-23.15,0-41.503-7.585-55.047-22.76c-12.52-13.81-19.808-32.226-21.865-55.245
			l197.811-11.254C2561.53,359.933,2561.615,357.525,2561.788,356.15z M2365.52,325.809c2.4-19.891,9.86-35.839,22.38-47.844
			c13.203-12.689,30.007-19.036,50.417-19.036c22.123,0,40.128,8.063,54.019,24.18c6.857,8.231,11.317,19.722,13.375,34.469
			L2365.52,325.809z"/>
		<path fill-rule="evenodd" clip-rule="evenodd" fill="#0185D9" d="M546.803,554.612c-49.094-6.52-97.546-16.313-145.454-28.824
			c-1.475-0.384-3.681-0.358-4.078-1.916c-0.538-2.127,1.956-2.558,3.249-3.492c40.391-29.134,74.998-63.853,101.946-105.887
			c30.2-47.112,47.609-98.228,47.689-159.042c0.259-8.959-1.134-22.167-3.322-35.277c-8.476-50.74-31.079-94.339-67.334-130.69
			c-22.559-22.619-48.788-40.188-77.906-53.357c-34.14-15.441-69.934-24.396-107.372-26.03
			c-37.557-1.639-73.807,5.473-108.853,18.597c-45.3,16.963-84.146,43.455-114.32,81.477
			c-41.634,52.457-57.545,112.696-50.651,178.894c4.226,40.567,18.025,78.192,38.679,113.308
			c27.172,46.21,63.29,84.194,106.363,115.818c2.267,1.665,6.663,2.836,6.057,5.575c-0.564,2.554-5.052,2.328-7.865,3.049
			c-47.099,12.139-94.714,21.66-142.947,28.018c-6.81,0.9-7.285,1.75-6.751,8.279c2.082,25.408,4.092,50.825,6.05,76.247
			c0.496,6.425,1.028,6.869,7.212,6.173c23.461-2.629,46.699-6.639,69.884-10.994c62.296-11.707,123.791-26.335,182.642-50.476
			c3.577-1.468,6.563-1.271,9.983,0.193c14.31,6.134,28.975,11.352,43.768,16.168c46.626,15.192,94.332,26.024,142.511,34.901
			c22.169,4.084,44.396,7.795,66.799,10.382c3.428,0.397,5.858-0.012,6.135-4.214c0.635-9.756,1.405-19.508,2.153-29.256
			c1.22-15.843,2.281-31.706,3.774-47.525C555.642,556.243,555.415,555.757,546.803,554.612z M321.843,463.478
			c-10.345,6.225-21.078,11.711-31.877,17.095c-3.776,1.883-7.181,1.814-10.975-0.014c-38.938-18.752-74.284-42.622-104.052-74.124
			c-30.933-32.728-53.847-70.036-62.68-114.886c-2.062-10.474-2.95-21.101-2.944-36.223c0.796-36.524,14.511-72.32,43.787-101.263
			c28.095-27.774,62.487-43.809,101.215-50.367c56.131-9.507,106.145,5.65,150.192,40.345
			c31.944,25.161,49.625,59.015,54.106,99.546c4.38,39.593-5.902,75.957-25.219,110.038
			C406.678,400.774,367.835,435.802,321.843,463.478z"/>
	</g>
	<line fill="#0185D9" x1="2788.183" y1="108.484" x2="2766.502" y2="130.122"/>
	<path fill="#FFC623" d="M3230.833,607.567l-10.82-67.27l-195.083-195.075l163.168-163.169l25.354-25.328
		c29.986-29.987,46.2-62.395,16.204-92.381c-29.992-30-62.386-13.785-92.376,16.209l-25.349,25.333l-163.167,163.172
		l-160.581-160.575l-30.061-29.491l-31.593-31.585l-0.087,0.086c-10.66-10.686-24.976-13.705-31.935-0.546l-49.968,49.979
		c-6.958,0.788-3.933,15.066,6.742,25.741l31.583,31.583l29.468,30.06l160.592,160.592l-122.833,122.837l-106.206,182.366
		l182.364-106.2l122.838-122.838l195.073,195.073l67.176,10.992v19.575l39.146,0.009v-39.157L3230.833,607.567z"/>
	<g>
		<path fill="#471200" d="M3229.656,64.345c-29.992-30-62.386-13.785-92.376,16.209l76.173,76.171
			C3243.438,126.738,3259.652,94.331,3229.656,64.345z"/>
		<path fill="#471200" d="M3230.833,607.567l-10.82-67.27l-195.083-195.075l163.168-163.169l-76.168-76.167l-163.167,163.172
			l-160.581-160.575l-21.681,21.638l160.604,160.596l-32.532,32.533l-160.595-160.602l-21.647,21.661l160.592,160.592
			l-122.833,122.837l-106.206,182.366l182.364-106.2l122.838-122.838l195.073,195.073l67.176,10.992v19.575l39.146,0.009v-39.157
			L3230.833,607.567z M2807.11,528.257l-76.636,47.501l-12.246-12.251l47.493-76.633c0,0,5.97-6.162,13.361,1.23
			c7.423,7.394,5.403,21.396,2.315,24.489c3.088-3.093,17.097-5.098,24.492,2.296C2813.281,522.28,2807.11,528.257,2807.11,528.257z
			 M3165.8,594.487l-195.062-195.07l32.536-32.537l195.079,195.068L3165.8,594.487z"/>
		<path fill="#471200" d="M2682.864,154.251l75.258-75.258l-31.593-31.585l-0.087,0.086c-10.66-10.686-24.976-13.705-31.935-6.741
			l-49.968,49.979c-6.958,6.983-3.933,21.261,6.742,31.936L2682.864,154.251z"/>
	</g>
</g>
</svg>
