<?xml version="1.0" encoding="utf-8"?>
<!-- Generator: Adobe Illustrator 16.0.0, SVG Export Plug-In . SVG Version: 6.00 Build 0)  -->
<!DOCTYPE svg PUBLIC "-//W3C//DTD SVG 1.1//EN" "http://www.w3.org/Graphics/SVG/1.1/DTD/svg11.dtd">
<svg version="1.1" id="Layer_1" xmlns="http://www.w3.org/2000/svg" xmlns:xlink="http://www.w3.org/1999/xlink" x="0px" y="0px"
	 width="36px" height="28.8px" viewBox="0 0 36 28.8" style="enable-background:new 0 0 36 28.8;" xml:space="preserve">
<g id="Folder_-_Orange">
	<g id="Plus_-_Grey">
	</g>
</g>
<g>
	<path style="fill:#0054A6;stroke:#062A5B;stroke-width:0.8977;stroke-miterlimit:10;" d="M34.4,26.5c0,0.5-0.3,1-0.7,1H1.8
		c-0.4,0-0.7-0.4-0.7-1V2.3c0-0.5,0.3-1,0.7-1h9.7l3.9,4.4h18.3c0.4,0,0.7,0.4,0.7,1V26.5z"/>
	<g>
		<g>
			<path style="fill:#FFFFFF;" d="M2.9,26.7c-0.7,0-1.2-0.6-1.2-1.4L3.1,8.4C3.1,7.6,3.6,7,4.2,7h30c0.6,0,1.2,0.6,1.2,1.4L34,25.3
				c0,0.8-0.5,1.4-1.2,1.4H2.9z"/>
			<path style="fill:#062A5B;" d="M34.2,7.4c0.4,0,0.7,0.4,0.7,1l-1.4,16.9c0,0.5-0.3,1-0.7,1h-30c-0.4,0-0.7-0.4-0.7-1L3.5,8.4
				c0-0.5,0.3-1,0.7-1H34.2 M34.2,6.5h-30c-0.9,0-1.6,0.8-1.6,1.8L1.3,25.2l0,0v0c0,1.1,0.7,1.9,1.6,1.9h30c0.9,0,1.6-0.8,1.6-1.8
				l1.4-16.9l0,0v0C35.8,7.4,35.1,6.5,34.2,6.5L34.2,6.5z"/>
		</g>
	</g>
</g>
<g id="Play">
</g>
</svg>
