<?xml version="1.0" encoding="utf-8"?>
<!-- Generator: Adobe Illustrator 16.0.0, SVG Export Plug-In . SVG Version: 6.00 Build 0)  -->
<!DOCTYPE svg PUBLIC "-//W3C//DTD SVG 1.1//EN" "http://www.w3.org/Graphics/SVG/1.1/DTD/svg11.dtd">
<svg version="1.1" xmlns="http://www.w3.org/2000/svg" xmlns:xlink="http://www.w3.org/1999/xlink" x="0px" y="0px" width="36.7px"
	 height="36.7px" viewBox="0 0 36.7 36.7" style="enable-background:new 0 0 36.7 36.7;" xml:space="preserve">
<g id="Layer_1">
	<g id="Folder_-_Orange">
		<g id="Plus_-_Grey">
		</g>
	</g>
	<g id="Play">
	</g>
</g>
<g id="icons">
	<g>
		<path style="fill:#FFFFFF;stroke:#062A5B;stroke-width:0.5969;stroke-miterlimit:10;" d="M36.3,33.3c0,1.6-1.3,3-3,3H3.4
			c-1.6,0-3-1.3-3-3V3.4c0-1.6,1.3-3,3-3h29.8c1.6,0,3,1.3,3,3V33.3z"/>
		<g>
			<g>
				<rect x="5.9" y="3.4" style="fill:#FFFFFF;" width="25.1" height="28.3"/>
				<path style="fill:#062A5B;" d="M30.6,3.8v27.5H6.3V3.8H30.6 M31.4,3H5.5v29.1h25.9V3L31.4,3z"/>
			</g>
			<g>
				<g>
					
						<line style="fill:none;stroke:#062A5B;stroke-width:0.5969;stroke-linecap:round;stroke-miterlimit:10;" x1="17.5" y1="11.2" x2="28.9" y2="11.2"/>
					
						<line style="fill:none;stroke:#062A5B;stroke-width:0.5969;stroke-linecap:round;stroke-miterlimit:10;" x1="17.5" y1="18.6" x2="28.9" y2="18.6"/>
					
						<line style="fill:none;stroke:#062A5B;stroke-width:0.5969;stroke-linecap:round;stroke-miterlimit:10;" x1="17.5" y1="26.1" x2="28.9" y2="26.1"/>
				</g>
				<rect x="10" y="16.9" style="fill:#FFFFFF;stroke:#062A5B;stroke-width:0.6;stroke-miterlimit:10;" width="3.4" height="3.4"/>
				<rect x="10" y="24.3" style="fill:#FFFFFF;stroke:#062A5B;stroke-width:0.6;stroke-miterlimit:10;" width="3.4" height="3.4"/>
				<g>
					<polygon style="fill:#062A5B;stroke:#8C98A0;stroke-width:6.954900e-02;" points="11.2,10.8 9.7,9.2 8,10.9 8,10.9 11.2,14.1 
						16.6,8.7 15.3,7.4 					"/>
				</g>
			</g>
			<g>
				<g>
					<g>
						<linearGradient id="SVGID_1_" gradientUnits="userSpaceOnUse" x1="26.4961" y1="22.7764" x2="31.1792" y2="34.0238">
							<stop  offset="0" style="stop-color:#FFFFFF"/>
							<stop  offset="1" style="stop-color:#D4D6D7"/>
						</linearGradient>
						<path style="fill:url(#SVGID_1_);" d="M28.5,33.8c-3.5,0-6.3-2.8-6.3-6.3s2.8-6.3,6.3-6.3c3.5,0,6.3,2.8,6.3,6.3
							S31.9,33.8,28.5,33.8z"/>
						<g>
							<path style="fill:#062A5B;" d="M28.5,21.3c3.4,0,6.2,2.8,6.2,6.2s-2.8,6.2-6.2,6.2c-3.4,0-6.2-2.8-6.2-6.2
								S25.1,21.3,28.5,21.3 M28.5,21.2c-3.5,0-6.3,2.8-6.3,6.3c0,3.5,2.8,6.3,6.3,6.3c3.5,0,6.3-2.8,6.3-6.3
								C34.8,24,32,21.2,28.5,21.2L28.5,21.2z"/>
						</g>
					</g>
				</g>
				<polygon style="fill:#062A5B;" points="32,26.6 29.4,26.6 29.4,24 27.6,24 27.6,26.6 24.9,26.6 24.9,28.4 27.6,28.4 27.6,31.1 
					29.4,31.1 29.4,28.4 32,28.4 				"/>
			</g>
			
				<text transform="matrix(1 0 0 1 18.7891 10.002)" style="fill:#062A5B;stroke:#8C98A0;stroke-width:6.955000e-02; font-family:'Chalkboard'; font-size:8.4326;">A+</text>
		</g>
	</g>
</g>
</svg>
