<?xml version="1.0" encoding="utf-8"?>
<!-- Generator: Adobe Illustrator 16.0.0, SVG Export Plug-In . SVG Version: 6.00 Build 0)  -->
<!DOCTYPE svg PUBLIC "-//W3C//DTD SVG 1.1//EN" "http://www.w3.org/Graphics/SVG/1.1/DTD/svg11.dtd">
<svg version="1.1" id="Layer_1" xmlns="http://www.w3.org/2000/svg" xmlns:xlink="http://www.w3.org/1999/xlink" x="0px" y="0px"
	 width="36.7px" height="36.7px" viewBox="0 0 36.7 36.7" style="enable-background:new 0 0 36.7 36.7;" xml:space="preserve">
<g id="Folder_-_Orange">
	<g id="Plus_-_Grey">
	</g>
</g>
<g id="Play">
</g>
<g>
	<path style="fill:#FFFFFF;stroke:#062A5B;stroke-width:0.5969;stroke-miterlimit:10;" d="M36.3,33.3c0,1.6-1.3,3-3,3H3.4
		c-1.6,0-3-1.3-3-3V3.4c0-1.6,1.3-3,3-3h29.8c1.6,0,3,1.3,3,3V33.3z"/>
	<polyline style="fill:#FFFFFF;stroke:#062A5B;stroke-linecap:round;stroke-miterlimit:10;" points="31.4,32.7 5.8,32.7 5.8,4.1 	
		"/>
	<g>
		<g>
			<g>
				<g>
					<linearGradient id="SVGID_1_" gradientUnits="userSpaceOnUse" x1="26.4961" y1="23.7983" x2="31.1789" y2="35.0449">
						<stop  offset="0" style="stop-color:#FFFFFF"/>
						<stop  offset="1" style="stop-color:#D4D6D7"/>
					</linearGradient>
					<path style="fill:url(#SVGID_1_);" d="M28.5,34.8c-3.5,0-6.3-2.8-6.3-6.3s2.8-6.3,6.3-6.3c3.4,0,6.3,2.8,6.3,6.3
						S31.9,34.8,28.5,34.8z"/>
					<g>
						<path style="fill:#062A5B;" d="M28.5,22.3c3.4,0,6.2,2.8,6.2,6.2s-2.8,6.2-6.2,6.2c-3.4,0-6.2-2.8-6.2-6.2
							S25.1,22.3,28.5,22.3 M28.5,22.2c-3.5,0-6.3,2.8-6.3,6.3c0,3.5,2.8,6.3,6.3,6.3c3.5,0,6.3-2.8,6.3-6.3
							C34.8,25,32,22.2,28.5,22.2L28.5,22.2z"/>
					</g>
				</g>
			</g>
			<polygon style="fill:#062A5B;" points="32,27.7 29.4,27.7 29.4,25 27.6,25 27.6,27.7 24.9,27.7 24.9,29.4 27.6,29.4 27.6,32.1 
				29.4,32.1 29.4,29.4 32,29.4 			"/>
		</g>
	</g>
	<g>
		<g>
			<circle style="fill:#062A5B;" cx="9.9" cy="13.1" r="1.1"/>
			<circle style="fill:#062A5B;" cx="15" cy="12.1" r="1.1"/>
			<path style="fill:#062A5B;" d="M20.9,13c0,0.6-0.5,1.1-1.1,1.1c-0.6,0-1.1-0.5-1.1-1.1c0-0.6,0.5-1.1,1.1-1.1
				C20.5,11.9,20.9,12.4,20.9,13z"/>
			<circle style="fill:#062A5B;" cx="24.9" cy="10.1" r="1.1"/>
			<circle style="fill:#062A5B;" cx="29.8" cy="8" r="1.1"/>
			<polyline style="fill:none;stroke:#062A5B;stroke-miterlimit:10;" points="10,13.1 15,12.1 19.9,13 24.9,10.1 29.8,8 			"/>
		</g>
		<g>
			<circle style="fill:#062A5B;" cx="30.8" cy="18.7" r="1.1"/>
			<circle style="fill:#062A5B;" cx="25.6" cy="17.8" r="1.1"/>
			<circle style="fill:#062A5B;" cx="20.2" cy="19.9" r="1.1"/>
			<circle style="fill:#062A5B;" cx="15.2" cy="18.8" r="1.1"/>
			<circle style="fill:#062A5B;" cx="9.9" cy="20.9" r="1.1"/>
			<polyline style="fill:none;stroke:#062A5B;stroke-miterlimit:10;" points="10,20.8 15.2,18.7 20.3,20.1 25.6,17.7 30.8,18.6 			
				"/>
		</g>
	</g>
	<g>
		<line style="fill:none;stroke:#062A5B;stroke-linecap:round;stroke-miterlimit:10;" x1="3" y1="28.5" x2="5.1" y2="28.5"/>
		<line style="fill:none;stroke:#062A5B;stroke-linecap:round;stroke-miterlimit:10;" x1="3" y1="24.5" x2="5.1" y2="24.5"/>
		<line style="fill:none;stroke:#062A5B;stroke-linecap:round;stroke-miterlimit:10;" x1="3" y1="20.5" x2="5.1" y2="20.5"/>
		<line style="fill:none;stroke:#062A5B;stroke-linecap:round;stroke-miterlimit:10;" x1="3" y1="16.5" x2="5.1" y2="16.5"/>
		<line style="fill:none;stroke:#062A5B;stroke-linecap:round;stroke-miterlimit:10;" x1="3" y1="12.5" x2="5.1" y2="12.5"/>
		<line style="fill:none;stroke:#062A5B;stroke-linecap:round;stroke-miterlimit:10;" x1="3" y1="8.5" x2="5.1" y2="8.5"/>
	</g>
</g>
</svg>
