<?xml version="1.0" encoding="utf-8"?>
<!-- Generator: Adobe Illustrator 16.0.0, SVG Export Plug-In . SVG Version: 6.00 Build 0)  -->
<!DOCTYPE svg PUBLIC "-//W3C//DTD SVG 1.1//EN" "http://www.w3.org/Graphics/SVG/1.1/DTD/svg11.dtd">
<svg version="1.1" id="Layer_1" xmlns="http://www.w3.org/2000/svg" xmlns:xlink="http://www.w3.org/1999/xlink" x="0px" y="0px"
	 width="36.7px" height="36.7px" viewBox="0 0 36.7 36.7" style="enable-background:new 0 0 36.7 36.7;" xml:space="preserve">
<g id="Folder_-_Orange">
	<g id="Plus_-_Grey">
	</g>
</g>
<g id="Play">
</g>
<g>
	<path style="fill:#FFFFFF;stroke:#062A5B;stroke-width:0.5969;stroke-miterlimit:10;" d="M36.3,33.3c0,1.6-1.3,3-3,3H3.4
		c-1.6,0-3-1.3-3-3V3.4c0-1.6,1.3-3,3-3h29.8c1.6,0,3,1.3,3,3V33.3z"/>
	<g>
		<g>
			<g>
				<rect x="4.7" y="9.2" style="fill:#062A5B;" width="27.4" height="18.3"/>
				
					<rect x="6.1" y="10.8" style="fill:#062A5B;stroke:#FFFFFF;stroke-width:0.8932;stroke-linecap:round;stroke-miterlimit:10;" width="24.5" height="15.1"/>
			</g>
			<g>
				
					<line style="fill:none;stroke:#FFFFFF;stroke-width:0.5969;stroke-linecap:round;stroke-miterlimit:10;" x1="10.8" y1="14.8" x2="26" y2="14.8"/>
				
					<line style="fill:none;stroke:#FFFFFF;stroke-width:0.5969;stroke-linecap:round;stroke-miterlimit:10;" x1="10.8" y1="17.8" x2="26" y2="17.8"/>
				
					<line style="fill:none;stroke:#FFFFFF;stroke-width:0.5969;stroke-linecap:round;stroke-miterlimit:10;" x1="10.8" y1="20.9" x2="26" y2="20.9"/>
				<rect x="8.5" y="24.1" style="fill:#FFFFFF;" width="4.4" height="1.3"/>
				<rect x="14.3" y="24.1" style="fill:#FFFFFF;" width="4.4" height="1.3"/>
			</g>
		</g>
		<g>
			<g>
				<g>
					<g>
						<linearGradient id="SVGID_1_" gradientUnits="userSpaceOnUse" x1="26.4326" y1="23.7979" x2="31.1147" y2="35.0458">
							<stop  offset="0" style="stop-color:#FFFFFF"/>
							<stop  offset="1" style="stop-color:#D4D6D7"/>
						</linearGradient>
						<path style="fill:url(#SVGID_1_);" d="M28.4,34.8c-3.5,0-6.3-2.8-6.3-6.3s2.8-6.3,6.3-6.3c3.4,0,6.3,2.8,6.3,6.3
							S31.9,34.8,28.4,34.8z"/>
						<g>
							<path style="fill:#062A5B;" d="M28.4,22.3c3.4,0,6.2,2.8,6.2,6.2s-2.8,6.2-6.2,6.2c-3.4,0-6.2-2.8-6.2-6.2S25,22.3,28.4,22.3
								 M28.4,22.2c-3.5,0-6.3,2.8-6.3,6.3c0,3.5,2.8,6.3,6.3,6.3c3.5,0,6.3-2.8,6.3-6.3C34.7,25,31.9,22.2,28.4,22.2L28.4,22.2z"/>
						</g>
					</g>
				</g>
				<polygon style="fill:#062A5B;" points="32,27.7 29.3,27.7 29.3,25 27.5,25 27.5,27.7 24.9,27.7 24.9,29.4 27.5,29.4 27.5,32.1 
					29.3,32.1 29.3,29.4 32,29.4 				"/>
			</g>
		</g>
	</g>
</g>
</svg>
