<?xml version="1.0" encoding="utf-8"?>
<!-- Generator: Adobe Illustrator 16.0.4, SVG Export Plug-In . SVG Version: 6.00 Build 0)  -->
<!DOCTYPE svg PUBLIC "-//W3C//DTD SVG 1.1//EN" "http://www.w3.org/Graphics/SVG/1.1/DTD/svg11.dtd">
<svg version="1.1" id="Layer_1" xmlns="http://www.w3.org/2000/svg" xmlns:xlink="http://www.w3.org/1999/xlink" x="0px" y="0px"
	 width="100px" height="100px" viewBox="0 0 100 100" enable-background="new 0 0 100 100" xml:space="preserve">
<g>
	<g>
		<path fill="#F4C51A" d="M84.958,10.399v79.203H15.042V10.399H84.958 M87.776,7.581H12.224V92.42h75.553V7.581L87.776,7.581z"/>
	</g>
	<g>
		<g>
			<path fill="#F4C51A" d="M78.875,30.116H46.811c-0.779,0-1.409-0.631-1.409-1.409c0-0.779,0.63-1.409,1.409-1.409h32.064
				c0.779,0,1.409,0.63,1.409,1.409C80.284,29.485,79.654,30.116,78.875,30.116z"/>
		</g>
		<g>
			<path fill="#F4C51A" d="M78.875,51.049H46.811c-0.779,0-1.409-0.63-1.409-1.41c0-0.778,0.63-1.409,1.409-1.409h32.064
				c0.779,0,1.409,0.631,1.409,1.409C80.284,50.418,79.654,51.049,78.875,51.049z"/>
		</g>
		<g>
			<path fill="#F4C51A" d="M78.875,71.982H46.811c-0.779,0-1.409-0.631-1.409-1.41s0.63-1.408,1.409-1.408h32.064
				c0.779,0,1.409,0.629,1.409,1.408S79.654,71.982,78.875,71.982z"/>
		</g>
	</g>
	<g>
		<path fill="#F4C51A" d="M36.033,55.094H24.911V43.972h11.122V55.094z M26.32,53.686h8.304v-8.304H26.32V53.686z"/>
	</g>
	<g>
		<path fill="#F4C51A" d="M36.033,76.008H24.911V64.889h11.122V76.008z M26.32,74.6h8.304v-8.301H26.32V74.6z"/>
	</g>
	<g>
		<g>
			<polygon fill="#F4C51A" points="28.984,27.649 24.653,22.943 19.87,27.729 19.87,27.727 28.885,36.748 44.127,21.509 
				40.643,17.97 			"/>
		</g>
	</g>
</g>
</svg>
