<?xml version="1.0" encoding="utf-8"?>
<!-- Generator: Adobe Illustrator 16.0.4, SVG Export Plug-In . SVG Version: 6.00 Build 0)  -->
<!DOCTYPE svg PUBLIC "-//W3C//DTD SVG 1.1//EN" "http://www.w3.org/Graphics/SVG/1.1/DTD/svg11.dtd">
<svg version="1.1" id="Layer_1" xmlns="http://www.w3.org/2000/svg" xmlns:xlink="http://www.w3.org/1999/xlink" x="0px" y="0px"
	 width="100px" height="100px" viewBox="0 0 100 100" enable-background="new 0 0 100 100" xml:space="preserve">
<g>
	<g>
		<path fill="#F4C51A" d="M39.218,46.764v-8.7h17.784v29.058h5.615v8.698H39.218v-8.698h5.732V46.764H39.218z M44.523,27.24
			c0-1.812,0.642-3.369,1.931-4.665c1.285-1.297,2.84-1.946,4.661-1.946c1.844,0,3.403,0.649,4.681,1.946
			c1.274,1.296,1.911,2.853,1.911,4.665c0,1.815-0.643,3.363-1.934,4.649c-1.285,1.282-2.838,1.925-4.658,1.925
			c-1.797,0-3.342-0.648-4.642-1.947C45.172,30.573,44.523,29.031,44.523,27.24z"/>
	</g>
	<g>
		<path fill="#F4C51A" d="M50.001,94.321c-24.44,0-44.326-19.885-44.326-44.323c0-24.438,19.885-44.319,44.326-44.319
			c24.438,0,44.323,19.882,44.323,44.319C94.324,74.437,74.439,94.321,50.001,94.321z M50.001,12.068
			c-20.918,0-37.936,17.015-37.936,37.93c0,20.916,17.018,37.934,37.936,37.934c20.917,0,37.935-17.018,37.935-37.934
			C87.936,29.083,70.918,12.068,50.001,12.068z"/>
	</g>
</g>
</svg>
