<?xml version="1.0" encoding="utf-8"?>
<!-- Generator: Adobe Illustrator 16.0.4, SVG Export Plug-In . SVG Version: 6.00 Build 0)  -->
<!DOCTYPE svg PUBLIC "-//W3C//DTD SVG 1.1//EN" "http://www.w3.org/Graphics/SVG/1.1/DTD/svg11.dtd">
<svg version="1.1" id="Layer_1" xmlns="http://www.w3.org/2000/svg" xmlns:xlink="http://www.w3.org/1999/xlink" x="0px" y="0px"
	 width="100px" height="100px" viewBox="0 0 100 100" enable-background="new 0 0 100 100" xml:space="preserve">
<g>
	<path fill="#F4C51A" d="M53.386,87.689C32.604,87.689,15.7,70.78,15.7,50c0-20.781,16.904-37.689,37.686-37.689
		c5.748,0,11.265,1.259,16.394,3.742l2.767-5.717c-6-2.901-12.449-4.374-19.16-4.374C29.104,5.962,9.351,25.717,9.351,50
		c0,24.283,19.754,44.038,44.035,44.038c6.876,0,13.467-1.543,19.586-4.586l-2.825-5.686C64.913,86.368,59.273,87.689,53.386,87.689
		z"/>
	<polygon fill="#F4C51A" points="90.649,51.015 49.589,34.24 57.488,47.84 25.887,47.84 25.887,54.188 57.49,54.188 49.589,67.792 	
		"/>
</g>
</svg>
