<?xml version="1.0" encoding="utf-8"?>
<!-- Generator: Adobe Illustrator 16.0.4, SVG Export Plug-In . SVG Version: 6.00 Build 0)  -->
<!DOCTYPE svg PUBLIC "-//W3C//DTD SVG 1.1//EN" "http://www.w3.org/Graphics/SVG/1.1/DTD/svg11.dtd">
<svg version="1.1" id="Layer_1" xmlns="http://www.w3.org/2000/svg" xmlns:xlink="http://www.w3.org/1999/xlink" x="0px" y="0px"
	 width="100px" height="100px" viewBox="0 0 100 100" enable-background="new 0 0 100 100" xml:space="preserve">
<g>
	<path fill="#F4C51A" d="M77.714,23.875L13.36,48.179l2.288,20.565l9.905,0.065c2.082,5.799,7.562,9.745,13.667,9.745
		c0.722,0,1.453-0.056,2.188-0.169c3.829-0.593,7.19-2.672,9.466-5.85c0.793-1.104,1.409-2.303,1.864-3.554l34.205,0.222
		L77.714,23.875z M48.053,70.517c-1.729,2.413-4.277,3.988-7.175,4.44c-4.84,0.734-9.396-1.885-11.502-6.124l19.578,0.126
		C48.687,69.493,48.406,70.024,48.053,70.517z"/>
	<path fill="#F4C51A" d="M83.287,22.722c-0.171-0.86-1.002-1.419-1.865-1.246c-0.859,0.17-1.416,1.007-1.246,1.865l9.092,45.597
		c0.151,0.753,0.814,1.275,1.555,1.275c0.104,0,0.207-0.01,0.312-0.029c0.858-0.172,1.416-1.008,1.247-1.866L83.287,22.722z"/>
	<path fill="#F4C51A" d="M9.117,48.129c-0.938,0.1-1.618,0.941-1.518,1.88l1.991,18.7c0.093,0.878,0.834,1.53,1.697,1.53
		c0.06,0,0.121-0.006,0.183-0.013c0.938-0.101,1.619-0.94,1.518-1.88l-1.991-18.699C10.897,48.709,10.053,48.017,9.117,48.129z"/>
</g>
</svg>
