<?xml version="1.0" encoding="utf-8"?>
<!-- Generator: Adobe Illustrator 16.0.4, SVG Export Plug-In . SVG Version: 6.00 Build 0)  -->
<!DOCTYPE svg PUBLIC "-//W3C//DTD SVG 1.1//EN" "http://www.w3.org/Graphics/SVG/1.1/DTD/svg11.dtd">
<svg version="1.1" id="Layer_1" xmlns="http://www.w3.org/2000/svg" xmlns:xlink="http://www.w3.org/1999/xlink" x="0px" y="0px"
	 width="100px" height="100px" viewBox="0 0 100 100" enable-background="new 0 0 100 100" xml:space="preserve">
<g>
	<path fill="#FFC92B" d="M90.465,38.967c0-10.703-8.674-19.377-19.378-19.377c-1.357,0-2.685,0.138-3.966,0.404
		c-3.404-5.575-9.543-9.297-16.552-9.297c-7.107,0-13.317,3.829-16.688,9.537c-1.588-0.42-3.249-0.644-4.969-0.644
		c-10.703,0-19.378,8.674-19.378,19.377c0,10.56,2.998,19.138,13.505,19.366c0.457,6.551,0.879,13.068,0.879,15.055
		c8.014,3.189,19.889,4.729,26.422,4.665c6.539,0.063,18.409-1.476,26.428-4.665c0-1.99,0.416-8.521,0.88-15.081
		C87.834,57.737,90.465,49.298,90.465,38.967z"/>
	<path fill="#FFC92B" d="M77.035,75.543c-0.044-0.153-0.085-0.303-0.133-0.458c-0.039,0.022-0.076,0.044-0.111,0.07
		c-0.022-0.022-0.033-0.048-0.049-0.07c-6.006,3.6-18.813,5.39-26.113,5.423c-7.307-0.033-20.112-1.823-26.114-5.423
		c-0.021,0.022,5.421,0.048,5.405,0.07c-0.042-0.026-5.533-0.048-5.57-0.07c-0.048,0.155-0.091,0.305-0.134,0.458
		c-0.554,1.05-0.84,2.859-0.787,4.569c-0.048,1.566,0.218,2.887,0.921,3.76c0.479,0.42,1.027,0.819,1.629,1.198
		c4.186,2.882,17.115,4.276,24.65,4.231c7.528,0.045,20.458-1.35,24.645-4.231c0.602-0.379,1.149-0.778,1.629-1.198
		c0.709-0.873,0.969-2.193,0.921-3.76C77.877,78.402,77.595,76.593,77.035,75.543z"/>
</g>
</svg>
