<?xml version="1.0" encoding="utf-8"?>
<!-- Generator: Adobe Illustrator 16.0.4, SVG Export Plug-In . SVG Version: 6.00 Build 0)  -->
<!DOCTYPE svg PUBLIC "-//W3C//DTD SVG 1.1//EN" "http://www.w3.org/Graphics/SVG/1.1/DTD/svg11.dtd">
<svg version="1.1" id="Layer_1" xmlns="http://www.w3.org/2000/svg" xmlns:xlink="http://www.w3.org/1999/xlink" x="0px" y="0px"
	 width="100px" height="100px" viewBox="0 0 100 100" enable-background="new 0 0 100 100" xml:space="preserve">
<g>
	<path fill="#F4C51A" d="M15.261,28.317c0,0,9.069,45.044,32.065,25.46C42.947,24.901,15.261,28.317,15.261,28.317z"/>
	<path fill="#F4C51A" d="M45.512,80.403c-2.931,0.119-5.031-0.309-8.796,3.971c-6.99,1.526-10.986,5.079-10.759,8.107
		c0.209,2.774,2.575,1.859,18.647,1.782c16.818-0.085,25.659,0.776,24.815-1.951c-2.146-6.91-8.068-6.383-9.761-7.083
		c-3.193-2.487-5.902-4.029-9.808-4.439c-1.748-12.631,2.375-23.785,7-32.846C94.85,37.545,82.986,5.582,82.986,5.582
		s-37.79-3.134-29.832,39.84C51.182,50.348,44.347,61.553,45.512,80.403z"/>
</g>
</svg>
