<?xml version="1.0" encoding="utf-8"?>
<!-- Generator: Adobe Illustrator 16.0.4, SVG Export Plug-In . SVG Version: 6.00 Build 0)  -->
<!DOCTYPE svg PUBLIC "-//W3C//DTD SVG 1.1//EN" "http://www.w3.org/Graphics/SVG/1.1/DTD/svg11.dtd">
<svg version="1.1" id="Layer_1" xmlns="http://www.w3.org/2000/svg" xmlns:xlink="http://www.w3.org/1999/xlink" x="0px" y="0px"
	 width="100px" height="100px" viewBox="0 0 100 100" enable-background="new 0 0 100 100" xml:space="preserve">
<g>
	<g>
		<g>
			<g>
				<g>
					<path fill="#FFC92B" d="M90.674,80.521c0.962-1.063,0.875-2.74-0.177-3.713L68.363,56.719
						c-1.062-0.973-2.724-0.896-3.691,0.181l-7.909,8.727c-0.957,1.078-0.878,2.731,0.186,3.709l22.131,20.097
						c1.062,0.978,2.728,0.889,3.684-0.181L90.674,80.521z"/>
				</g>
			</g>
		</g>
		<g>
			<path fill="#FFC92B" d="M37.635,9.888c12.001,0,23.219,7.527,27.365,19.508c5.24,15.122-2.762,31.616-17.903,36.846
				c-3.139,1.073-6.327,1.594-9.462,1.594c-12.014,0-23.244-7.512-27.378-19.492c-5.233-15.123,2.784-31.617,17.899-36.859
				C31.29,10.404,34.49,9.888,37.635,9.888 M37.635,17.752c-2.344,0-4.668,0.393-6.914,1.158l0,0
				c-5.319,1.857-9.612,5.66-12.083,10.733c-2.469,5.074-2.818,10.803-0.962,16.124c2.937,8.506,10.966,14.222,19.959,14.222
				c2.336,0,4.658-0.395,6.893-1.172c5.333-1.84,9.631-5.647,12.093-10.71c2.471-5.085,2.803-10.811,0.957-16.144
				C54.644,23.455,46.626,17.752,37.635,17.752L37.635,17.752z"/>
		</g>
	</g>
</g>
</svg>
