<?xml version="1.0" encoding="utf-8"?>
<!-- Generator: Adobe Illustrator 16.0.4, SVG Export Plug-In . SVG Version: 6.00 Build 0)  -->
<!DOCTYPE svg PUBLIC "-//W3C//DTD SVG 1.1//EN" "http://www.w3.org/Graphics/SVG/1.1/DTD/svg11.dtd">
<svg version="1.1" id="Layer_1" xmlns="http://www.w3.org/2000/svg" xmlns:xlink="http://www.w3.org/1999/xlink" x="0px" y="0px"
	 width="100px" height="100px" viewBox="0 0 100 100" enable-background="new 0 0 100 100" xml:space="preserve">
<g>
	<path fill="#F4C51A" d="M92.394,57.852V43.35h-9.631c-0.813-3.844-2.329-7.42-4.385-10.617l7.154-7.159L75.28,15.321l-7.274,7.271
		c-3.176-1.942-6.606-3.296-10.148-4.028V7.606H43.35v11.276c-3.356,0.845-6.498,2.207-9.337,4.019l-8.434-8.435L15.321,24.726
		l8.507,8.507c-1.73,2.802-2.983,5.809-3.767,8.916H7.606V56.65h12.098c0.667,3.25,1.844,6.314,3.417,9.123l-8.648,8.647
		l10.258,10.258l8.15-8.156c2.881,2.016,6.007,3.525,9.267,4.479v11.393H56.65V81.825c3.724-0.622,7.23-1.872,10.4-3.665
		l7.377,7.366l10.25-10.251l-6.905-6.913c2.246-3.244,3.813-6.806,4.727-10.507L92.394,57.852z M37.714,36.989
		c7.398-7.397,19.393-7.397,26.791-0.003c7.391,7.399,7.396,19.396,0,26.793c-7.398,7.392-19.387,7.392-26.791,0
		C30.323,56.383,30.317,44.389,37.714,36.989z"/>
	<path fill="#F4C51A" d="M51.111,66.661c4.348,0,8.436-1.692,11.509-4.766c6.346-6.343,6.346-16.673,0-23.025
		c-3.071-3.075-7.16-4.768-11.509-4.768c-4.351,0-8.439,1.694-11.513,4.771c-6.347,6.344-6.347,16.671,0,23.022
		C42.675,64.969,46.765,66.661,51.111,66.661z M41.807,41.081c2.484-2.486,5.788-3.856,9.305-3.856c3.514,0,6.818,1.368,9.301,3.854
		c5.129,5.135,5.129,13.483,0,18.609c-2.482,2.481-5.787,3.852-9.301,3.852c-3.515,0-6.819-1.37-9.305-3.852
		C36.678,54.556,36.676,46.208,41.807,41.081z"/>
</g>
</svg>
