<?xml version="1.0" encoding="utf-8"?>
<!-- Generator: Adobe Illustrator 16.0.4, SVG Export Plug-In . SVG Version: 6.00 Build 0)  -->
<!DOCTYPE svg PUBLIC "-//W3C//DTD SVG 1.1//EN" "http://www.w3.org/Graphics/SVG/1.1/DTD/svg11.dtd">
<svg version="1.1" id="Layer_1" xmlns="http://www.w3.org/2000/svg" xmlns:xlink="http://www.w3.org/1999/xlink" x="0px" y="0px"
	 width="100px" height="100px" viewBox="0 0 100 100" enable-background="new 0 0 100 100" xml:space="preserve">
<g>
	<path fill="#FFC92B" d="M66.407,10.595c-0.078-0.006-0.15-0.016-0.227-0.02c0,0,0.004,0.009,0.004,0.014
		c-0.116-0.005-0.233-0.012-0.351-0.014l0.69,5.52c0,0,16.918,4.36,11.923,10.308c-2.319,2.455-7.493,4.133-8.819,4.729
		c-2.536,0.931-10.11,2.998-19.626,3.095c-9.519-0.097-17.094-2.164-19.629-3.095c-1.326-0.596-6.496-2.274-8.815-4.729
		c-4.995-5.948,11.923-10.308,11.923-10.308l0.69-5.52c-0.117,0.002-0.234,0.009-0.352,0.014c0-0.005,0-0.014,0-0.014
		c-0.072,0.004-0.145,0.014-0.221,0.02C23.949,10.94,15.002,16.968,15.3,26.446c-0.036,1.061,0.018,2.161,0.176,3.307
		c0,0,0.965,4.276,3.031,5.518c1.245,1.656,2.622,30.901,4.692,46.49c0.564,1.268,1.403,2.414,2.463,3.451
		c3.717,4.796,13.931,7.315,24.339,7.223c10.405,0.093,20.623-2.427,24.336-7.223c1.061-1.037,1.903-2.184,2.468-3.451
		c2.065-15.589,3.447-44.834,4.688-46.49c2.07-1.241,3.035-5.518,3.035-5.518c0.158-1.146,0.208-2.247,0.172-3.307
		C84.998,16.968,76.056,10.94,66.407,10.595z"/>
	<g>
		<g>
			<g>
				<line fill="#1B3765" x1="49.488" y1="45.106" x2="49.488" y2="82.176"/>
				<path fill="#142C49" d="M49.488,84.774c-1.436,0-2.6-1.163-2.6-2.599v-37.07c0-1.436,1.164-2.6,2.6-2.6
					c1.435,0,2.599,1.164,2.599,2.6v37.07C52.087,83.611,50.923,84.774,49.488,84.774z"/>
			</g>
			<g>
				<line fill="#1B3765" x1="69.271" y1="44.278" x2="65.491" y2="81.346"/>
				<path fill="#142C49" d="M65.492,83.944c-0.087,0-0.176-0.004-0.266-0.014c-1.428-0.145-2.468-1.421-2.321-2.849l3.78-37.068
					c0.145-1.427,1.398-2.468,2.85-2.322c1.428,0.146,2.468,1.422,2.321,2.85l-3.78,37.068
					C67.939,82.948,66.81,83.944,65.492,83.944z"/>
			</g>
			<g>
				<line fill="#1B3765" x1="30.513" y1="44.278" x2="34.293" y2="81.346"/>
				<path fill="#142C49" d="M34.29,83.944c-1.316,0-2.446-0.996-2.583-2.334l-3.781-37.068c-0.146-1.428,0.895-2.704,2.322-2.85
					c1.439-0.147,2.706,0.895,2.85,2.322l3.781,37.068c0.146,1.428-0.895,2.704-2.322,2.849
					C34.467,83.94,34.377,83.944,34.29,83.944z"/>
			</g>
		</g>
		<g>
			<path fill="#FFC92B" d="M59.829,25.593c-1.437,0-2.6-1.164-2.6-2.6v-8.578c0-0.44-0.172-0.855-0.485-1.167
				c-0.312-0.313-0.728-0.486-1.17-0.486H44.209c-0.441,0-0.853,0.17-1.162,0.481c-0.321,0.32-0.493,0.733-0.493,1.172v8.578
				c0,1.436-1.164,2.6-2.6,2.6c-1.436,0-2.6-1.164-2.6-2.6v-8.578c0-1.834,0.716-3.555,2.017-4.848
				c1.281-1.289,3.002-2.004,4.837-2.004h11.365c1.83,0,3.551,0.714,4.847,2.009c1.294,1.295,2.006,3.014,2.006,4.843v8.578
				C62.427,24.429,61.264,25.593,59.829,25.593z"/>
		</g>
	</g>
</g>
</svg>
