<?xml version="1.0" encoding="utf-8"?>
<!-- Generator: Adobe Illustrator 16.0.4, SVG Export Plug-In . SVG Version: 6.00 Build 0)  -->
<!DOCTYPE svg PUBLIC "-//W3C//DTD SVG 1.1//EN" "http://www.w3.org/Graphics/SVG/1.1/DTD/svg11.dtd">
<svg version="1.1" id="Layer_1" xmlns="http://www.w3.org/2000/svg" xmlns:xlink="http://www.w3.org/1999/xlink" x="0px" y="0px"
	 width="100px" height="100px" viewBox="0 0 100 100" enable-background="new 0 0 100 100" xml:space="preserve">
<g>
	<g>
		<polygon fill="#F4C51A" points="44.7,73.095 44.7,60.195 35.077,60.195 49.73,44.232 64.39,60.195 54.768,60.195 54.768,73.095 		
			"/>
		<path fill="#F4C51A" d="M49.73,44.696l13.943,15.186h-8.592h-0.63v0.628v12.272h-9.437V60.51v-0.628h-0.63h-8.594L49.73,44.696
			 M49.73,43.766L34.36,60.51h10.025v12.899h10.696V60.51h10.024L49.73,43.766L49.73,43.766z"/>
	</g>
	<g>
		<path fill="#F4C51A" d="M85.886,90.648H14.113c-2.187,0-3.966-1.78-3.966-3.969V30.924c0-2.186,1.779-3.966,3.966-3.966h71.772
			c2.188,0,3.967,1.78,3.967,3.966V86.68C89.853,88.868,88.073,90.648,85.886,90.648z M14.113,29.685
			c-0.685,0-1.24,0.556-1.24,1.239V86.68c0,0.687,0.556,1.242,1.24,1.242h71.772c0.685,0,1.24-0.556,1.24-1.242V30.924
			c0-0.684-0.556-1.239-1.24-1.239H14.113z"/>
	</g>
	<g>
		<path fill="#F4C51A" d="M84.075,23.964h-2.725v-2.776c0-0.471-0.384-0.853-0.854-0.853H19.49c-0.47,0-0.852,0.382-0.852,0.853
			v2.69h-2.726v-2.69c0-1.973,1.604-3.578,3.577-3.578h61.007c1.973,0,3.578,1.605,3.578,3.578V23.964z"/>
	</g>
	<g>
		<path fill="#F4C51A" d="M79.193,14.955h-2.727v-2.361c0-0.284-0.233-0.517-0.521-0.517H24.091c-0.285,0-0.517,0.232-0.517,0.517
			v2.29h-2.726v-2.29c0-1.787,1.455-3.242,3.242-3.242h51.855c1.791,0,3.247,1.455,3.247,3.242V14.955z"/>
	</g>
</g>
</svg>
