<?xml version="1.0" encoding="utf-8"?>
<!-- Generator: Adobe Illustrator 16.0.4, SVG Export Plug-In . SVG Version: 6.00 Build 0)  -->
<!DOCTYPE svg PUBLIC "-//W3C//DTD SVG 1.1//EN" "http://www.w3.org/Graphics/SVG/1.1/DTD/svg11.dtd">
<svg version="1.1" id="Layer_1" xmlns="http://www.w3.org/2000/svg" xmlns:xlink="http://www.w3.org/1999/xlink" x="0px" y="0px"
	 width="100px" height="100px" viewBox="0 0 100 100" enable-background="new 0 0 100 100" xml:space="preserve">
<g>
	<g>
		<g>
			<path fill="#FFC92B" d="M76.924,9.935v67.004H17.771V9.935H76.924 M79.308,7.551h-63.92v71.771h63.92V7.551L79.308,7.551z"/>
			<g>
				<g>
					<path fill="#FFC92B" d="M71.778,26.615H44.655c-0.66,0-1.192-0.533-1.192-1.192s0.533-1.192,1.192-1.192h27.124
						c0.66,0,1.192,0.533,1.192,1.192S72.438,26.615,71.778,26.615z"/>
				</g>
				<g>
					<path fill="#FFC92B" d="M71.778,44.324H44.655c-0.66,0-1.192-0.533-1.192-1.192s0.533-1.192,1.192-1.192h27.124
						c0.66,0,1.192,0.533,1.192,1.192S72.438,44.324,71.778,44.324z"/>
				</g>
				<g>
					<path fill="#FFC92B" d="M71.778,62.033H44.655c-0.66,0-1.192-0.533-1.192-1.193c0-0.658,0.533-1.191,1.192-1.191h27.124
						c0.66,0,1.192,0.533,1.192,1.191C72.971,61.5,72.438,62.033,71.778,62.033z"/>
				</g>
			</g>
			<g>
				<polygon fill="#FFC92B" points="29.567,24.529 25.902,20.547 21.856,24.597 21.856,24.594 29.483,32.227 42.382,19.334 
					39.435,16.341 				"/>
			</g>
			<g>
				<polygon fill="#FFC92B" points="29.567,41.417 25.902,37.436 21.856,41.485 21.856,41.482 29.483,49.114 42.382,36.223 
					39.435,33.229 				"/>
			</g>
			<g>
				<polygon fill="#FFC92B" points="29.567,60.365 25.902,56.385 21.856,60.434 21.856,60.432 29.483,68.062 42.382,55.172 
					39.435,52.178 				"/>
			</g>
		</g>
		<g>
			<circle fill="#FFC92B" stroke="#FFC92B" stroke-width="0.5625" stroke-miterlimit="10" cx="62.819" cy="70.656" r="21.793"/>
			<g>
				<polygon fill="#0756A5" points="63.646,60.271 74.375,71 69,71 69,82 58,82 58,71 52.918,71 				"/>
			</g>
		</g>
	</g>
</g>
</svg>
