<svg xmlns="http://www.w3.org/2000/svg" xmlns:xlink="http://www.w3.org/1999/xlink" version="1.1" id="Layer_1" x="0px" y="0px" width="100px" height="100px" viewBox="0 0 100 100" enable-background="new 0 0 100 100" xml:space="preserve">
<g>
	<g>
		<rect fill="#4C6CF4" x="63.4" y="39" transform="matrix(0.8088 0.5881 -0.5881 0.8088 39.95 -28.8552)" width="2" height="16"/>
	</g>
	<g>
		<rect fill="#4C6CF4" x="44.6" y="51" transform="matrix(0.7593 0.6507 -0.6507 0.7593 45.4729 -18.9816)" width="7.6" height="2"/>
	</g>
	<g>
		<rect fill="#4C6CF4" x="34.5" y="49.3" transform="matrix(0.7927 0.6096 -0.6096 0.7927 40.8673 -10.2302)" width="2" height="11.4"/>
	</g>
	<g>
		<path fill="#4C6CF4" d="M72,42.5c-3.3,0-6-2.7-6-6s2.7-6,6-6s6,2.7,6,6S75.3,42.5,72,42.5z M72,32.5c-2.2,0-4,1.8-4,4s1.8,4,4,4s4-1.8,4-4    S74.2,32.5,72,32.5z"/>
	</g>
	<g>
		<path fill="#4C6CF4" d="M56,63.5c-3.3,0-6-2.7-6-6s2.7-6,6-6s6,2.7,6,6S59.3,63.5,56,63.5z M56,53.5c-2.2,0-4,1.8-4,4s1.8,4,4,4s4-1.8,4-4    S58.2,53.5,56,53.5z"/>
	</g>
	<g>
		<path fill="#4C6CF4" d="M42,52.5c-3.3,0-6-2.7-6-6s2.7-6,6-6s6,2.7,6,6S45.3,52.5,42,52.5z M42,42.5c-2.2,0-4,1.8-4,4s1.8,4,4,4s4-1.8,4-4    S44.2,42.5,42,42.5z"/>
	</g>
	<g>
		<path fill="#4C6CF4" d="M29,69.5c-3.3,0-6-2.7-6-6s2.7-6,6-6s6,2.7,6,6S32.3,69.5,29,69.5z M29,59.5c-2.2,0-4,1.8-4,4s1.8,4,4,4s4-1.8,4-4    S31.2,59.5,29,59.5z"/>
	</g>
</g>
</svg>