<svg xmlns="http://www.w3.org/2000/svg" xmlns:xlink="http://www.w3.org/1999/xlink" version="1.1" id="Your_Icon" x="0px" y="0px" width="100px" height="100px" viewBox="0 0 100 100" enable-background="new 0 0 100 100" xml:space="preserve">
<path fill="#000000" d="M50.163,33.692c-11.179,0-20.273,9.095-20.273,20.275c0,11.179,9.094,20.273,20.273,20.273  c11.179,0,20.273-9.095,20.273-20.273C70.437,42.787,61.342,33.692,50.163,33.692z"/>
<path fill="#000000" d="M92.181,24H74v-5.391C74,14.13,70.35,11,65.872,11H34.455C29.977,11,26,14.13,26,18.609V24h-7v-5h-8v5H8.146  C3.667,24,0,27.082,0,31.56v50.219C0,86.256,3.667,90,8.146,90h84.035c4.478,0,7.819-3.744,7.819-8.222V31.56  C100,27.082,96.658,24,92.181,24z M50.163,80.321c-14.532,0-26.355-11.822-26.355-26.354c0-14.533,11.823-26.356,26.355-26.356  c14.532,0,26.354,11.823,26.354,26.356C76.518,68.499,64.695,80.321,50.163,80.321z"/>
</svg>