<svg xmlns="http://www.w3.org/2000/svg" xmlns:xlink="http://www.w3.org/1999/xlink" version="1.1" id="Milk_Bottle" x="0px" y="0px" width="100px" height="100px" viewBox="0 0 100 100" enable-background="new 0 0 100 100" xml:space="preserve">
<g>
	<polygon fill="#BE49FE" points="21.202,38.346 79.26,38.346 78.185,34.493 22.277,34.493  "/>
	<rect x="23" fill="#BE49FE" width="54" height="30"/>
	<g>
		<path fill="none" d="M66,57.854C66,55.726,64.275,54,62.147,54H38.853C36.725,54,35,55.726,35,57.854v4.293    C35,64.274,36.725,66,38.853,66h23.295C64.275,66,66,64.274,66,62.146V57.854z"/>
		<path fill="#BE49FE" d="M83.995,15H79v7.185L85.711,42h-4.657H67.435H33.031H15.559h-0.808L21,22.19V15h-4.53L4.001,42.089    L9.375,100h81.711l5.377-57.911L83.995,15z M67,63.94c0,3.289-1.41,6.06-3.685,6.06H38.222C35.948,70,34,67.229,34,63.94v-6.367    C34,54.285,35.948,52,38.222,52h25.094C65.59,52,67,54.285,67,57.573V63.94z"/>
	</g>
</g>
</svg>