<?xml version="1.0" encoding="utf-8"?>
<!-- Generator: Adobe Illustrator 16.0.0, SVG Export Plug-In . SVG Version: 6.00 Build 0)  -->
<!DOCTYPE svg PUBLIC "-//W3C//DTD SVG 1.1//EN" "http://www.w3.org/Graphics/SVG/1.1/DTD/svg11.dtd">
<svg version="1.1" id="Livello_1" xmlns="http://www.w3.org/2000/svg" xmlns:xlink="http://www.w3.org/1999/xlink" x="0px" y="0px"
	 width="100px" height="100px" viewBox="0 0 100 100" enable-background="new 0 0 100 100" xml:space="preserve">
<g id="LINE_75_">
	<g id="XMLID_1_">
		<g>
			<path fill="#686868" d="M94.076,17.141c4.117,4.117,4.117,10.799,0,14.917L71.701,9.683c4.119-4.117,10.799-4.117,14.916,0
				L94.076,17.141z"/>
			<path fill="#686868" d="M26.965,9.683L4.589,32.058c-4.117-4.118-4.117-10.8,0-14.917l7.458-7.458
				C16.165,5.566,22.847,5.566,26.965,9.683z"/>
			<path fill="#686868" d="M70.42,49.169v10.513H49.339c-2.919,0-5.265-2.344-5.265-5.264V33.34h10.517v15.829H70.42z"/>
			<path fill="#686868" d="M91.174,49.169c2.918,23.085-13.465,44.194-36.582,47.097c-23.088,2.92-44.198-13.465-47.1-36.584
				C4.573,36.597,20.958,15.487,44.075,12.586V1.702h10.517v10.884C73.119,14.391,89.369,30.641,91.174,49.169z M80.965,54.418
				c0-17.466-14.158-31.624-31.625-31.624c-17.481,0-31.639,14.157-31.639,31.624c0,17.48,14.158,31.639,31.639,31.639
				C66.807,86.057,80.965,71.898,80.965,54.418z"/>
		</g>
	</g>
</g>
</svg>
