<?xml version="1.0" encoding="utf-8"?>
<!-- Generator: Adobe Illustrator 16.0.0, SVG Export Plug-In . SVG Version: 6.00 Build 0)  -->
<!DOCTYPE svg PUBLIC "-//W3C//DTD SVG 1.1//EN" "http://www.w3.org/Graphics/SVG/1.1/DTD/svg11.dtd">
<svg version="1.1" id="Layer_1" xmlns="http://www.w3.org/2000/svg" xmlns:xlink="http://www.w3.org/1999/xlink" x="0px" y="0px"
	 width="100px" height="100px" viewBox="0 0 100 100" enable-background="new 0 0 100 100" xml:space="preserve">
<g id="Captions">
</g>
<g id="Your_Icon">
	<g>
		<g>
			<g>
				<path fill="#6B6B6B" d="M82.389,60.281c6.106-1.021,10.995-1.124,10.995-1.124c1.501-0.032,2.726-1.285,2.726-2.784v-9.725
					c0-1.499-1.222-2.831-2.717-2.959c0,0-7.055-0.603-10.878-1.537c-0.31-0.075-0.31-0.075-0.31-0.075
					c-0.316-0.131-0.828-0.946-1.136-1.814c-0.307-0.868-1.09-3.945-0.853-5.015c0,0,0,0,0.728-1.022
					c3.59-5.041,6.894-8.488,6.894-8.488c1.035-1.083,1.018-2.836-0.042-3.895l-6.879-6.878c-1.058-1.06-2.812-1.08-3.896-0.042
					c0,0-3.76,3.598-8.811,6.396c-1.11,0.615-1.11,0.615-1.11,0.615c-1.352,0.095-3.181-0.142-4.062-0.526
					c-0.884-0.384-3.364-1.396-3.434-1.644c0,0,0,0-0.04-0.246c-1.022-6.106-1.134-12.37-1.134-12.37
					c-0.028-1.5-1.278-2.726-2.777-2.726h-9.725c-1.499,0-2.75,1.227-2.776,2.726c0,0-0.125,6.695-1.722,12.248
					c-0.099,0.345-0.099,0.345-0.099,0.345c-0.164,0.353-0.808,0.817-1.428,1.033c-0.622,0.214-3.446,0.847-4.946,0.82
					c0,0-0.123-0.001-1.413-0.715c-5.055-2.798-8.813-6.392-8.813-6.392c-1.082-1.037-2.837-1.019-3.897,0.043l-6.876,6.876
					c-1.06,1.06-1.08,2.813-0.042,3.896c0,0,3.3,3.445,6.893,8.485c0.651,0.913,0.651,0.913,0.651,0.913
					c0.255,0.964,0.106,2.521-0.332,3.46c-0.437,0.941-1.686,3.688-2.083,3.879c0,0,0,0-0.392,0.114
					C13.101,43.75,7.9,43.863,7.9,43.863c-1.499,0.031-2.726,1.285-2.726,2.784v9.725c0,1.499,1.227,2.753,2.726,2.785
					c0,0,4.771,0.1,10.879,1.124c0.302,0.052,0.302,0.052,0.302,0.052c0.304,0.082,0.822,0.929,1.151,1.879
					c0.328,0.95,1.207,4.265,0.978,5.375c0,0,0,0-0.757,1.063c-3.594,5.038-6.894,8.486-6.894,8.486
					c-1.038,1.08-1.019,2.835,0.042,3.894l6.878,6.878c1.061,1.059,2.813,1.08,3.896,0.042c0,0,3.758-3.601,8.813-6.395
					c1.268-0.702,1.341-0.703,1.341-0.703c1.5-0.038,3.232,0.144,3.851,0.41c0.621,0.263,2.514,1.264,2.774,1.758
					c0,0,0,0,0.144,0.499c1.596,5.551,1.709,10.753,1.709,10.753c0.033,1.501,1.285,2.726,2.785,2.726h9.726
					c1.499,0,2.753-1.225,2.785-2.726c0,0,0.104-4.772,1.126-10.878c0.059-0.344,0.059-0.344,0.059-0.344
					c0.098-0.343,0.879-0.859,1.736-1.147c0.857-0.29,4.262-1.165,5.756-1.109c0,0,0,0,1.229,0.679
					c5.054,2.798,8.812,6.395,8.812,6.395c1.083,1.038,2.837,1.017,3.897-0.042l6.879-6.883c1.059-1.059,1.077-2.811,0.04-3.893
					c0,0-3.303-3.443-6.893-8.483c-0.762-1.07-0.762-1.07-0.762-1.07c-0.229-1.113-0.089-2.767,0.311-3.671
					c0.4-0.903,1.43-3.439,1.662-3.505C82.157,60.321,82.157,60.321,82.389,60.281z M50.693,70.624
					c-10.581,0-19.16-8.574-19.16-19.157c0-10.584,8.579-19.159,19.16-19.159c10.585,0,19.16,8.575,19.16,19.159
					C69.854,62.05,61.278,70.624,50.693,70.624z"/>
				<path fill="#6B6B6B" d="M82.389,60.281c6.106-1.021,10.995-1.124,10.995-1.124c1.501-0.032,2.726-1.285,2.726-2.784v-9.725
					c0-1.499-1.222-2.831-2.717-2.959c0,0-7.055-0.603-10.878-1.537c-0.31-0.075-0.31-0.075-0.31-0.075
					c-0.316-0.131-0.828-0.946-1.136-1.814c-0.307-0.868-1.09-3.945-0.853-5.015c0,0,0,0,0.728-1.022
					c3.59-5.041,6.894-8.488,6.894-8.488c1.035-1.083,1.018-2.836-0.042-3.895l-6.879-6.878c-1.058-1.06-2.812-1.08-3.896-0.042
					c0,0-3.76,3.598-8.811,6.396c-1.11,0.615-1.11,0.615-1.11,0.615c-1.352,0.095-3.181-0.142-4.062-0.526
					c-0.884-0.384-3.364-1.396-3.434-1.644c0,0,0,0-0.04-0.246c-1.022-6.106-1.134-12.37-1.134-12.37
					c-0.028-1.5-1.278-2.726-2.777-2.726h-9.725c-1.499,0-2.75,1.227-2.776,2.726c0,0-0.125,6.695-1.722,12.248
					c-0.099,0.345-0.099,0.345-0.099,0.345c-0.164,0.353-0.808,0.817-1.428,1.033c-0.622,0.214-3.446,0.847-4.946,0.82
					c0,0-0.123-0.001-1.413-0.715c-5.055-2.798-8.813-6.392-8.813-6.392c-1.082-1.037-2.837-1.019-3.897,0.043l-6.876,6.876
					c-1.06,1.06-1.08,2.813-0.042,3.896c0,0,3.3,3.445,6.893,8.485c0.651,0.913,0.651,0.913,0.651,0.913
					c0.255,0.964,0.106,2.521-0.332,3.46c-0.437,0.941-1.686,3.688-2.083,3.879c0,0,0,0-0.392,0.114
					C13.101,43.75,7.9,43.863,7.9,43.863c-1.499,0.031-2.726,1.285-2.726,2.784v9.725c0,1.499,1.227,2.753,2.726,2.785
					c0,0,4.771,0.1,10.879,1.124c0.302,0.052,0.302,0.052,0.302,0.052c0.304,0.082,0.822,0.929,1.151,1.879
					c0.328,0.95,1.207,4.265,0.978,5.375c0,0,0,0-0.757,1.063c-3.594,5.038-6.894,8.486-6.894,8.486
					c-1.038,1.08-1.019,2.835,0.042,3.894l6.878,6.878c1.061,1.059,2.813,1.08,3.896,0.042c0,0,3.758-3.601,8.813-6.395
					c1.268-0.702,1.341-0.703,1.341-0.703c1.5-0.038,3.232,0.144,3.851,0.41c0.621,0.263,2.514,1.264,2.774,1.758
					c0,0,0,0,0.144,0.499c1.596,5.551,1.709,10.753,1.709,10.753c0.033,1.501,1.285,2.726,2.785,2.726h9.726
					c1.499,0,2.753-1.225,2.785-2.726c0,0,0.104-4.772,1.126-10.878c0.059-0.344,0.059-0.344,0.059-0.344
					c0.098-0.343,0.879-0.859,1.736-1.147c0.857-0.29,4.262-1.165,5.756-1.109c0,0,0,0,1.229,0.679
					c5.054,2.798,8.812,6.395,8.812,6.395c1.083,1.038,2.837,1.017,3.897-0.042l6.879-6.883c1.059-1.059,1.077-2.811,0.04-3.893
					c0,0-3.303-3.443-6.893-8.483c-0.762-1.07-0.762-1.07-0.762-1.07c-0.229-1.113-0.089-2.767,0.311-3.671
					c0.4-0.903,1.43-3.439,1.662-3.505C82.157,60.321,82.157,60.321,82.389,60.281z M50.693,70.624
					c-10.581,0-19.16-8.574-19.16-19.157c0-10.584,8.579-19.159,19.16-19.159c10.585,0,19.16,8.575,19.16,19.159
					C69.854,62.05,61.278,70.624,50.693,70.624z"/>
			</g>
		</g>
	</g>
</g>
</svg>
