<?xml version="1.0" encoding="utf-8"?>
<!-- Generator: Adobe Illustrator 16.0.0, SVG Export Plug-In . SVG Version: 6.00 Build 0)  -->
<!DOCTYPE svg PUBLIC "-//W3C//DTD SVG 1.1//EN" "http://www.w3.org/Graphics/SVG/1.1/DTD/svg11.dtd">
<svg version="1.1" xmlns="http://www.w3.org/2000/svg" xmlns:xlink="http://www.w3.org/1999/xlink" x="0px" y="0px" width="612px"
	 height="792px" viewBox="0 0 612 792" enable-background="new 0 0 612 792" xml:space="preserve">
<g id="Layer_1">
	<path fill="#339969" d="M612,396.003c0,151.728-123.759,275.485-275.485,275.485c-76.292,0-145.797-31.364-194.959-81.371
		l42.381-42.387c38.991,38.14,93.238,62.724,152.578,62.724c118.673,0,214.45-95.778,214.45-214.451s-95.777-214.457-214.45-214.457
		c-104.267,0-191.568,72.051-211.067,170.375l68.66-10.172l-97.479,136.47L0,341.749l64.419,9.321
		c20.343-131.378,133.93-230.552,272.096-230.552C488.241,120.518,612,243.425,612,396.003z"/>
</g>
<g id="Layer_3">
	<path fill="#339969" d="M477.808,366.36v63.644H340.155c-19.059,0-34.376-15.303-34.376-34.369V258.001h63.669V366.36H477.808z"/>
</g>
</svg>
