<?xml version="1.0" encoding="utf-8"?>
<!-- Generator: Adobe Illustrator 16.0.0, SVG Export Plug-In . SVG Version: 6.00 Build 0)  -->
<!DOCTYPE svg PUBLIC "-//W3C//DTD SVG 1.1//EN" "http://www.w3.org/Graphics/SVG/1.1/DTD/svg11.dtd">
<svg version="1.1" id="Layer_1" xmlns="http://www.w3.org/2000/svg" xmlns:xlink="http://www.w3.org/1999/xlink" x="0px" y="0px"
	 width="100px" height="100px" viewBox="0 0 100 100" enable-background="new 0 0 100 100" xml:space="preserve">
<path fill="#FE3737" d="M87.04,50.34c0,0.09,0,0.18-0.011,0.26c-0.039,0.5-0.18,0.98-0.409,1.4c-0.011,0.03-0.03,0.061-0.062,0.09
	c-0.18,0.26-0.43,0.551-0.77,0.92l-0.03,0.03c-0.358,0.38-0.829,0.851-1.43,1.45l-9.07,9.068c-0.68,0.69-1.579,1.03-2.479,1.03
	c-0.891,0-1.789-0.34-2.471-1.03c-1.369-1.358-1.369-3.578,0-4.938c0,0,2.301-2.312,4.78-4.78H43.41c-1.93,0-3.5-1.57-3.5-3.5
	c0-1.94,1.57-3.5,3.5-3.5h31.68l-4.779-4.78c-1.369-1.37-1.369-3.58,0-4.95c1.369-1.37,3.58-1.37,4.949,0l10.75,10.75
	C86.67,48.52,87.04,49.41,87.04,50.34z"/>
<path fill="#EEEEEE" d="M86.561,52.09c-0.189,0.352-0.461,0.66-0.771,0.92C86.13,52.641,86.38,52.35,86.561,52.09z"/>
<path fill="#EEEEEE" d="M87.029,50.6c-0.01,0.551-0.09,0.94-0.409,1.4C86.85,51.58,86.99,51.1,87.029,50.6z"/>
<path fill="#FE3737" d="M63.98,68.09c1.289,1.44,1.158,3.65-0.28,4.94c-5.58,5-12.79,7.75-20.29,7.75
	c-16.79,0-30.45-13.66-30.45-30.44c0-16.79,13.66-30.45,30.45-30.45c7.5,0,14.71,2.75,20.29,7.75c1.438,1.29,1.569,3.5,0.28,4.94
	c-1.291,1.44-3.5,1.57-4.94,0.28c-4.3-3.85-9.85-5.97-15.63-5.97c-12.93,0-23.45,10.52-23.45,23.45s10.52,23.44,23.45,23.44
	c5.78,0,11.33-2.12,15.63-5.96C60.48,66.53,62.689,66.65,63.98,68.09z"/>
</svg>
