<svg xmlns="http://www.w3.org/2000/svg" xmlns:xlink="http://www.w3.org/1999/xlink" version="1.1" id="Layer_1" x="0px" y="0px" width="100px" height="100px" viewBox="0 0 100 100" enable-background="new 0 0 100 100" xml:space="preserve">
<path fill="#EEEEEE" d="M87.04,50.34c0,0.09,0,0.18-0.01,0.26c-0.04,0.5-0.181,0.98-0.41,1.4c-0.01,0.03-0.03,0.06-0.061,0.09  c-0.18,0.26-0.43,0.55-0.77,0.92l-0.03,0.03c-0.359,0.38-0.83,0.85-1.43,1.45l-9.07,9.069c-0.68,0.69-1.58,1.03-2.479,1.03  c-0.891,0-1.79-0.34-2.471-1.03c-1.369-1.359-1.369-3.579,0-4.939c0,0,2.301-2.311,4.78-4.78H43.41c-1.93,0-3.5-1.57-3.5-3.5  c0-1.94,1.57-3.5,3.5-3.5h31.68l-4.78-4.78c-1.369-1.37-1.369-3.58,0-4.95c1.37-1.37,3.58-1.37,4.95,0l10.75,10.75  C86.67,48.52,87.04,49.41,87.04,50.34z"/>
<path fill="#EEEEEE" d="M86.56,52.09c-0.189,0.351-0.46,0.66-0.77,0.92C86.13,52.64,86.38,52.35,86.56,52.09z"/>
<path fill="#EEEEEE" d="M87.03,50.6c-0.011,0.551-0.09,0.94-0.41,1.4C86.85,51.58,86.99,51.1,87.03,50.6z"/>
<path fill="#EEEEEE" d="M63.98,68.09c1.289,1.44,1.159,3.65-0.28,4.94c-5.58,5-12.79,7.75-20.29,7.75c-16.79,0-30.45-13.66-30.45-30.44  c0-16.79,13.66-30.45,30.45-30.45c7.5,0,14.71,2.75,20.29,7.75c1.439,1.29,1.569,3.5,0.28,4.94c-1.29,1.44-3.5,1.57-4.94,0.28  c-4.3-3.85-9.85-5.97-15.63-5.97c-12.93,0-23.45,10.52-23.45,23.45s10.52,23.44,23.45,23.44c5.78,0,11.33-2.12,15.63-5.96  C60.48,66.53,62.69,66.65,63.98,68.09z"/>
</svg>