<?xml version="1.0" encoding="UTF-8" standalone="no"?>
<!-- Generator: Adobe Illustrator 16.0.0, SVG Export Plug-In . SVG Version: 6.00 Build 0)  -->

<svg
   xmlns:dc="http://purl.org/dc/elements/1.1/"
   xmlns:cc="http://creativecommons.org/ns#"
   xmlns:rdf="http://www.w3.org/1999/02/22-rdf-syntax-ns#"
   xmlns:svg="http://www.w3.org/2000/svg"
   xmlns="http://www.w3.org/2000/svg"
   xmlns:sodipodi="http://sodipodi.sourceforge.net/DTD/sodipodi-0.dtd"
   xmlns:inkscape="http://www.inkscape.org/namespaces/inkscape"
   version="1.1"
   id="Layer_1"
   x="0px"
   y="0px"
   width="100px"
   height="100px"
   viewBox="0 0 100 100"
   enable-background="new 0 0 100 100"
   xml:space="preserve"
   inkscape:version="0.91 r13725"
   sodipodi:docname="save.svg"><metadata
     id="metadata11"><rdf:RDF><cc:Work
         rdf:about=""><dc:format>image/svg+xml</dc:format><dc:type
           rdf:resource="http://purl.org/dc/dcmitype/StillImage" /></cc:Work></rdf:RDF></metadata><defs
     id="defs9" /><sodipodi:namedview
     pagecolor="#ffffff"
     bordercolor="#666666"
     borderopacity="1"
     objecttolerance="10"
     gridtolerance="10"
     guidetolerance="10"
     inkscape:pageopacity="0"
     inkscape:pageshadow="2"
     inkscape:window-width="640"
     inkscape:window-height="480"
     id="namedview7"
     showgrid="false"
     inkscape:zoom="2.36"
     inkscape:cx="50"
     inkscape:cy="50"
     inkscape:window-x="726"
     inkscape:window-y="286"
     inkscape:window-maximized="0"
     inkscape:current-layer="Layer_1" /><g
     id="Captions" /><g
     id="Your_Icon"
     transform="matrix(1.2899197,0,0,1.2899197,-14.495986,-14.495986)"><path
       d="m 88,84 0,-2 c 0,-2.961 -0.859,-4 -4,-4 l -68,0 c -2.961,0 -4,0.98 -4,4 l 0,2 c 0,3.102 1.039,4 4,4 l 68,0 c 3.02,0 4,-0.961 4,-4 z M 58,12 42,12 c -5,0 -6,0.941 -6,6 l 0,22 -20,0 34,34 34,-34 -20,0 0,-22 c 0,-5.059 -1.061,-6 -6,-6 z"
       id="path5"
       inkscape:connector-curvature="0"
       style="fill:#4384dc" /></g></svg>