<svg xmlns="http://www.w3.org/2000/svg" xmlns:xlink="http://www.w3.org/1999/xlink" version="1.1" id="Layer_1" x="0px" y="0px" width="100.0px" height="100px" viewBox="0 0 512 512" enable-background="new 0 0 512 512" xml:space="preserve">
<path fill="#EBFC4E" d="M109,403.125c9.375,9.375,9.375,24.563,0,33.938c-4.688,4.688-10.844,7.031-17,7.031c-6.125,0-12.25-2.344-16.938-7.031  C26.656,388.688,0,324.375,0,256S26.625,123.313,75,75c9.375-9.375,24.563-9.375,33.938,0s9.375,24.563,0,33.938  C69.625,148.188,48,200.438,48,256S69.656,363.813,109,403.125z M436.938,74.906c-9.406-9.375-24.594-9.344-33.938,0.031  c-9.375,9.375-9.375,24.563,0,33.938c39.344,39.281,61,91.531,61,147.125c0,55.563-21.625,107.781-60.906,147.094  c-9.375,9.375-9.375,24.563,0,33.938c4.688,4.688,10.844,7.031,16.969,7.031c6.156,0,12.281-2.344,16.969-7.031  C485.375,388.656,512,324.375,512,256C512,187.563,485.344,123.25,436.938,74.906z M152,256c0-27.781,10.813-53.875,30.438-73.563  c9.375-9.375,9.375-24.563,0-33.938s-24.563-9.375-33.938,0C119.813,177.25,104,215.406,104,256  c0,40.625,15.813,78.813,44.563,107.5c4.688,4.688,10.813,7.031,16.969,7.031s12.281-2.344,16.969-7.031  c9.375-9.375,9.375-24.594,0-33.938C162.813,309.906,152,283.813,152,256z M363.438,148.5c-9.406-9.406-24.594-9.344-33.938,0  c-9.375,9.375-9.375,24.563,0,33.938C349.156,202.094,360,228.219,360,256c0,27.813-10.813,53.938-30.438,73.563  c-9.375,9.375-9.375,24.563,0,33.938c4.688,4.688,10.813,7.031,16.969,7.031s12.281-2.344,16.969-7.031  C392.188,334.813,408,296.625,408,256S392.188,177.219,363.438,148.5z M256,208c-26.5,0-48,21.5-48,48c0,26.531,21.5,48,48,48  c26.531,0,48-21.469,48-48C304,229.5,282.531,208,256,208z"/>
</svg>