<?xml version="1.0" encoding="utf-8"?>
<!-- Generator: Adobe Illustrator 16.0.0, SVG Export Plug-In . SVG Version: 6.00 Build 0)  -->
<!DOCTYPE svg PUBLIC "-//W3C//DTD SVG 1.1//EN" "http://www.w3.org/Graphics/SVG/1.1/DTD/svg11.dtd">
<svg version="1.1" id="Layer_1" xmlns="http://www.w3.org/2000/svg" xmlns:xlink="http://www.w3.org/1999/xlink" x="0px" y="0px"
	 width="100px" height="100px" viewBox="0 0 100 100" enable-background="new 0 0 100 100" xml:space="preserve">
<g id="Captions">
</g>
<g id="Your_Icon">
	<path id="refresh-3-icon" fill="#FFFFFF" d="M84.447,68.6C73.882,87.896,49.666,94.977,30.368,84.406c-0.002,0,0.002,0.002,0,0
		l-4.947,9.035l-6.67-22.784l22.8-6.671l-5.053,9.227c0.006,0.004-0.002,0,0,0c13.114,7.18,29.575,2.372,36.755-10.744
		c3.591-6.559,4.185-13.95,2.24-20.601l12.248-3.581C90.604,48.072,89.73,58.95,84.447,68.6z M74.577,6.557l-4.947,9.035
		c-0.001-0.001,0.002,0,0,0C50.33,5.025,26.118,12.102,15.551,31.4c-5.282,9.65-6.154,20.526-3.292,30.315l12.249-3.584
		c-1.944-6.652-1.351-14.044,2.238-20.601c7.181-13.115,23.641-17.925,36.755-10.745c0.006,0.002-0.002-0.002,0,0l-5.051,9.226
		l22.798-6.668L74.577,6.557L74.577,6.557z"/>
</g>
</svg>
