<svg xmlns="http://www.w3.org/2000/svg" xmlns:xlink="http://www.w3.org/1999/xlink" version="1.1" id="Layer_1" x="0px" y="0px" width="100px" height="100px" viewBox="0 0 100 100" enable-background="new 0 0 100 100" xml:space="preserve">
<path fill="#6B6B6B" d="M83.26,16.737H65.651v-3.91C65.651,8.511,62.144,5,57.826,5H42.173c-4.313,0-7.824,3.511-7.824,7.827v3.91H16.74  c-3.234,0-5.867,2.632-5.867,5.876v13.689h3.91v43.045C14.783,87.976,21.802,95,30.435,95h39.131  c8.632,0,15.651-7.024,15.651-15.652V36.303h3.91V22.613C89.127,19.369,86.492,16.737,83.26,16.737z M42.173,12.827h15.653v3.91  H42.173V12.827z M77.392,79.348c0,4.316-3.508,7.824-7.826,7.824H30.435c-4.314,0-7.826-3.507-7.826-7.824V36.303h54.783V79.348z   M18.697,28.476v-3.914h62.605v3.914H18.697z M30.435,79.348V44.129c0-2.164,1.753-3.916,3.914-3.916  c2.157,0,3.912,1.752,3.912,3.916v35.219c0,2.161-1.755,3.915-3.912,3.915C32.188,83.263,30.435,81.508,30.435,79.348z   M46.088,79.348V44.129c0-2.164,1.753-3.916,3.912-3.916c2.165,0,3.912,1.752,3.912,3.916v35.219c0,2.161-1.747,3.915-3.912,3.915  C47.841,83.263,46.088,81.508,46.088,79.348z M61.739,79.348V44.129c0-2.164,1.75-3.916,3.912-3.916  c2.163,0,3.914,1.752,3.914,3.916v35.219c0,2.161-1.751,3.915-3.914,3.915C63.489,83.263,61.739,81.508,61.739,79.348z"/>
</svg>