<?xml version="1.0" encoding="utf-8"?>
<!-- Generator: Adobe Illustrator 16.0.0, SVG Export Plug-In . SVG Version: 6.00 Build 0)  -->
<!DOCTYPE svg PUBLIC "-//W3C//DTD SVG 1.1//EN" "http://www.w3.org/Graphics/SVG/1.1/DTD/svg11.dtd">
<svg version="1.1" id="Layer_1" xmlns="http://www.w3.org/2000/svg" xmlns:xlink="http://www.w3.org/1999/xlink" x="0px" y="0px"
	 width="78.734px" height="100px" viewBox="0 0 78.734 100" enable-background="new 0 0 78.734 100" xml:space="preserve">
<g>
	<polygon fill="#686868" points="71.843,6.747 46.56,6.747 46.56,0 32.175,0 32.175,6.747 6.891,6.747 6.891,15.801 71.843,15.801 	
		"/>
	<path fill="#686868" d="M71.843,20.682L71.843,20.682H6.891l0,0H0v9.054h7.458L11.852,100h55.031l4.394-70.264h7.458v-9.054H71.843
		z M20.437,90.861L16.62,29.82h8.071l1.271,61.042H20.437z M42.137,90.861h-5.54L35.34,29.82h8.054L42.137,90.861z M58.298,90.861
		h-5.524l1.271-61.042h8.071L58.298,90.861z"/>
</g>
</svg>
