<?xml version="1.0" encoding="UTF-8" standalone="no"?>
<!-- Generator: Adobe Illustrator 16.0.0, SVG Export Plug-In . SVG Version: 6.00 Build 0)  -->

<svg
   xmlns:dc="http://purl.org/dc/elements/1.1/"
   xmlns:cc="http://creativecommons.org/ns#"
   xmlns:rdf="http://www.w3.org/1999/02/22-rdf-syntax-ns#"
   xmlns:svg="http://www.w3.org/2000/svg"
   xmlns="http://www.w3.org/2000/svg"
   xmlns:sodipodi="http://sodipodi.sourceforge.net/DTD/sodipodi-0.dtd"
   xmlns:inkscape="http://www.inkscape.org/namespaces/inkscape"
   version="1.1"
   id="Layer_1"
   x="0px"
   y="0px"
   width="100px"
   height="100px"
   viewBox="0 0 100 100"
   enable-background="new 0 0 100 100"
   xml:space="preserve"
   inkscape:version="0.91 r13725"
   sodipodi:docname="upload.svg"><metadata
     id="metadata3348"><rdf:RDF><cc:Work
         rdf:about=""><dc:format>image/svg+xml</dc:format><dc:type
           rdf:resource="http://purl.org/dc/dcmitype/StillImage" /></cc:Work></rdf:RDF></metadata><defs
     id="defs3346" /><sodipodi:namedview
     pagecolor="#ffffff"
     bordercolor="#666666"
     borderopacity="1"
     objecttolerance="10"
     gridtolerance="10"
     guidetolerance="10"
     inkscape:pageopacity="0"
     inkscape:pageshadow="2"
     inkscape:window-width="771"
     inkscape:window-height="646"
     id="namedview3344"
     showgrid="false"
     inkscape:zoom="3.337544"
     inkscape:cx="49.816476"
     inkscape:cy="59.038463"
     inkscape:window-x="0"
     inkscape:window-y="0"
     inkscape:window-maximized="0"
     inkscape:current-layer="Layer_1" /><g
     id="Captions" /><g
     id="Your_Icon"
     transform="matrix(1.2899197,0,0,1.2899197,-13.751077,-14.640945)"><path
       d="m 87.5,18 0,-2 c 0,-2.961 -0.359,-3.5 -3.5,-3.5 l -68,0 c -2.961,0 -4.5,0.48 -4.5,3.5 l 0,2 c 0,3.102 1.539,4.5 4.5,4.5 l 68,0 c 3.02,0 3.5,-1.461 3.5,-4.5 z M 58,88.5 c 4.939,0 5.5,-1.439 5.5,-6.5 l 0,-21.5 20.5,0 -34,-34 -34,34 19.5,0 0,21.5 c 0,5.061 1.5,6.5 6.5,6.5 l 16,0 z"
       id="path3342"
       inkscape:connector-curvature="0"
       style="fill:#1aa8a1" /></g></svg>